<?xml version="1.0" standalone="no"?>
<!DOCTYPE svg PUBLIC "-//W3C//DTD SVG 20010904//EN"
 "http://www.w3.org/TR/2001/REC-SVG-20010904/DTD/svg10.dtd">
<svg version="1.0" xmlns="http://www.w3.org/2000/svg"
 width="1024.000000pt" height="1024.000000pt" viewBox="0 0 1024.000000 1024.000000"
 preserveAspectRatio="xMidYMid meet">
<metadata>
Created by potrace 1.16, written by Peter Selinger 2001-2019
</metadata>
<g transform="translate(0.000000,1024.000000) scale(0.100000,-0.100000)"
fill="currentColor" stroke="none">
<path d="M2560 9623 c0 -9 -21 -13 -72 -13 -92 0 -250 -18 -273 -31 -5 -3 -45
-12 -87 -19 -43 -7 -78 -16 -78 -20 0 -4 -38 -16 -85 -26 -47 -10 -85 -22 -85
-26 0 -4 -21 -13 -47 -20 -26 -6 -42 -13 -35 -16 6 -2 12 -7 12 -12 0 -10 -75
-40 -98 -39 -9 0 5 7 31 15 29 9 45 19 41 25 -4 7 -9 8 -13 1 -3 -5 -25 -15
-48 -21 -40 -11 -59 -30 -30 -32 6 0 -7 -9 -31 -19 -23 -11 -49 -17 -57 -14
-8 4 -15 1 -15 -5 0 -6 -6 -11 -14 -11 -8 0 -18 -4 -21 -10 -4 -6 3 -6 21 0
15 6 29 8 32 6 6 -6 -49 -21 -65 -18 -7 2 -13 -2 -13 -8 0 -5 6 -10 13 -10 6
-1 -6 -10 -27 -20 -22 -11 -44 -20 -50 -20 -6 1 6 9 28 19 27 13 35 21 25 26
-8 5 -14 4 -17 -4 -2 -7 -15 -17 -29 -22 -16 -6 -23 -15 -20 -24 7 -16 -46
-47 -66 -39 -7 2 -18 -6 -26 -18 -10 -18 -10 -20 0 -10 7 6 20 12 29 11 8 0 4
-5 -10 -11 -14 -6 -34 -10 -45 -9 -16 2 -17 0 -8 -10 9 -9 7 -16 -12 -30 -32
-26 -43 -24 -14 2 l24 20 -27 -17 c-15 -9 -25 -20 -22 -26 8 -13 -15 -38 -35
-37 -11 0 -9 3 7 9 27 11 29 20 2 13 -10 -3 -25 -12 -32 -21 -10 -12 -10 -14
0 -8 6 4 12 3 12 -2 0 -11 -34 -42 -46 -42 -5 0 0 7 10 15 11 8 15 15 10 15
-16 0 -33 -21 -27 -36 2 -7 -5 -19 -16 -26 -12 -7 -21 -18 -21 -24 0 -5 -14
-23 -31 -40 -17 -16 -35 -39 -40 -52 -5 -13 -15 -22 -21 -21 -20 3 -48 -12
-42 -23 3 -5 12 -1 20 9 13 16 13 16 5 -7 -5 -14 -14 -24 -21 -22 -15 3 -40
-16 -40 -31 0 -6 7 -2 15 9 14 18 15 18 6 -6 -5 -15 -16 -25 -27 -25 -13 0
-18 -6 -17 -20 3 -23 -16 -75 -27 -75 -4 0 -10 -9 -13 -21 -3 -12 -10 -19 -14
-16 -5 3 -15 1 -23 -5 -12 -8 -12 -9 3 -4 19 6 20 1 7 -29 -5 -11 -9 -14 -9
-7 -1 6 -6 12 -12 12 -5 0 -7 -5 -3 -11 7 -12 -26 -119 -37 -119 -3 0 -12 -20
-19 -45 -7 -25 -15 -43 -19 -40 -3 3 -15 -36 -27 -87 -12 -51 -23 -81 -23 -65
-1 15 -5 27 -10 27 -5 0 -8 -12 -5 -27 4 -35 -25 -272 -37 -295 -5 -10 -10
-41 -11 -70 l-1 -53 -7 50 -7 50 -1 -52 c-1 -35 -6 -53 -14 -53 -9 0 -8 -4 2
-10 10 -6 11 -10 3 -10 -10 0 -13 -539 -13 -2660 0 -2121 3 -2660 13 -2660 8
0 7 -4 -3 -10 -10 -6 -11 -10 -2 -10 8 0 13 -19 14 -57 l1 -58 7 60 7 60 1
-63 c1 -34 6 -70 11 -80 13 -24 41 -232 37 -264 -2 -15 1 -32 8 -37 10 -8 12
-3 9 22 -2 17 6 -2 18 -43 11 -41 18 -87 15 -102 -3 -16 -1 -28 4 -28 6 0 10
10 10 23 1 15 5 10 16 -18 8 -22 12 -53 10 -70 -3 -16 -2 -24 1 -17 2 6 8 12
13 12 13 0 43 -87 37 -105 -4 -8 -2 -15 2 -15 5 0 11 5 13 12 3 7 13 -11 23
-40 11 -29 23 -52 27 -52 4 0 8 -5 8 -11 0 -6 -7 -8 -16 -5 -9 3 -12 2 -9 -4
4 -6 14 -9 23 -8 9 2 18 -5 20 -16 3 -13 0 -16 -9 -11 -7 5 -10 4 -5 -3 4 -6
13 -9 21 -6 9 4 19 -7 30 -32 8 -20 24 -44 35 -51 11 -8 20 -22 20 -31 0 -15
-2 -15 -10 -2 -5 8 -10 10 -10 4 0 -12 32 -44 45 -44 5 0 0 7 -11 16 -11 8
-13 14 -5 12 8 -2 21 -15 30 -28 12 -18 13 -22 2 -16 -10 6 -12 5 -7 -3 4 -6
15 -10 24 -9 12 2 17 -4 17 -20 1 -22 119 -155 129 -145 2 3 -11 19 -30 35
-19 17 -32 33 -30 36 7 6 71 -60 71 -74 0 -13 63 -68 88 -77 25 -9 21 2 -5 13
-16 6 -18 9 -7 9 20 1 41 -22 37 -40 -2 -7 7 -18 19 -24 13 -5 23 -13 23 -17
0 -4 17 -15 38 -24 20 -10 41 -24 45 -31 4 -7 13 -13 18 -13 17 0 -22 34 -59
51 -19 9 -30 19 -24 23 5 3 15 -1 22 -9 7 -8 16 -15 21 -15 5 0 28 -14 52 -31
23 -18 34 -29 25 -26 -12 4 -15 2 -11 -8 3 -8 9 -12 14 -9 5 3 9 1 9 -5 0 -5
13 -9 28 -9 16 1 37 -4 48 -10 10 -6 13 -12 7 -12 -28 0 -10 -18 34 -35 27
-10 54 -24 61 -31 7 -7 28 -16 47 -20 19 -3 35 -10 35 -15 0 -5 12 -3 26 3 19
9 27 9 32 1 4 -6 29 -17 55 -24 26 -6 46 -14 43 -16 -2 -3 -29 2 -59 11 -66
19 -100 20 -39 1 24 -7 57 -20 75 -28 18 -8 59 -20 92 -27 33 -6 67 -14 75
-18 8 -3 38 -7 65 -7 87 -3 295 -29 295 -37 0 -4 -25 -8 -55 -8 -30 0 -55 4
-55 9 0 4 -26 11 -57 14 -32 3 -76 8 -98 11 -30 4 -28 3 10 -6 28 -6 52 -14
55 -17 6 -7 2 -7 134 -20 60 -6 140 -11 178 -11 48 0 68 -4 68 -12 0 -10 3 -9
9 1 6 9 11 10 15 2 10 -16 4862 -16 4872 0 4 8 9 7 15 -2 6 -10 9 -11 9 -1 0
8 20 12 67 12 86 0 293 21 293 30 0 3 36 12 80 19 44 8 80 17 80 21 0 4 19 10
43 14 66 10 137 29 137 37 0 4 17 10 38 14 38 6 78 25 55 25 -7 0 -13 4 -13
10 0 10 100 43 108 35 2 -2 -17 -9 -42 -16 -35 -9 -44 -15 -36 -23 7 -7 13 -8
18 0 4 5 26 16 50 24 23 7 42 17 42 21 0 4 16 13 36 19 19 7 33 14 31 17 -3 2
-22 -3 -42 -11 -21 -9 -43 -16 -49 -15 -6 0 8 8 30 17 23 9 48 22 55 28 21 16
79 37 85 31 3 -3 -13 -11 -35 -18 -30 -9 -39 -15 -31 -23 7 -7 13 -7 18 -1 4
6 20 16 35 23 19 8 27 18 23 27 -5 14 43 45 68 45 6 -1 -6 -9 -28 -19 -26 -12
-34 -21 -26 -26 8 -5 16 -2 21 7 5 9 20 19 35 22 20 5 23 10 15 20 -9 11 -4
17 23 30 19 9 40 14 48 11 7 -3 19 5 27 17 10 18 10 20 0 10 -7 -6 -20 -12
-29 -12 -8 0 -2 7 13 15 15 8 35 11 45 8 13 -5 15 -3 5 7 -9 10 -7 17 12 31
32 26 46 23 15 -2 l-25 -21 25 15 c14 8 24 21 22 27 -4 17 18 40 37 39 11 0 9
-3 -6 -9 -28 -11 -30 -20 -5 -13 20 5 213 193 198 193 -5 0 -26 -19 -47 -42
-22 -24 -39 -37 -39 -31 0 7 11 19 23 28 13 8 29 26 35 40 8 17 16 23 28 18
12 -4 15 -3 10 5 -7 12 29 73 42 70 15 -3 42 15 36 24 -3 5 -12 1 -20 -9 -13
-16 -13 -16 -5 7 5 14 14 24 21 22 15 -3 40 16 40 31 0 6 -7 2 -15 -9 -14 -18
-15 -18 -6 6 5 14 15 24 24 22 9 -1 18 2 22 8 3 6 0 7 -9 4 -16 -6 -23 11 -8
18 4 2 16 19 26 38 11 22 16 27 13 12 -4 -15 -1 -22 6 -19 7 2 11 13 10 23 -3
25 29 123 34 107 3 -7 9 -13 14 -13 4 0 6 7 3 15 -6 16 24 105 36 105 4 0 13
28 21 63 8 37 15 53 17 40 6 -38 17 -26 18 20 1 55 32 186 33 140 1 -18 5 -33
10 -33 5 0 8 28 7 62 -1 76 22 266 35 290 5 10 10 57 11 105 l2 88 6 -85 6
-85 2 83 c1 58 6 82 15 82 8 0 7 4 -3 10 -10 6 -11 10 -2 10 8 0 12 20 12 65
0 45 -4 65 -12 65 -9 0 -8 4 2 11 11 8 12 12 3 16 -18 7 -18 103 0 103 8 0 7
4 -3 10 -13 9 -13 10 0 10 12 0 13 2 1 9 -11 7 -11 9 0 14 10 4 10 6 2 6 -19
1 -19 3117 0 3124 9 4 8 8 -3 16 -13 10 -13 11 0 11 12 0 13 2 1 9 -11 7 -11
10 0 15 11 5 11 7 2 12 -10 4 -13 78 -13 319 0 241 3 314 13 318 9 4 9 8 -2
15 -11 8 -11 10 0 15 10 4 10 6 2 6 -8 1 -13 15 -13 36 0 21 5 35 13 35 8 0 7
4 -3 10 -10 6 -11 10 -2 10 9 0 12 34 12 135 0 101 -3 135 -12 135 -9 0 -8 4
2 10 10 6 11 10 3 10 -9 0 -13 23 -13 80 0 57 4 80 13 80 8 0 7 4 -3 10 -10 6
-11 10 -2 10 9 0 12 41 12 170 0 129 -3 170 -12 170 -9 0 -8 4 2 10 10 6 11
10 3 10 -9 0 -14 23 -15 78 l-2 77 -6 -80 -6 -80 -2 93 c-1 50 -6 92 -10 92
-10 0 -37 206 -36 278 0 53 -15 75 -17 25 0 -16 -9 8 -20 52 -11 44 -18 92
-16 108 2 15 -2 32 -8 37 -9 8 -11 3 -8 -17 2 -16 -3 -8 -12 17 -8 25 -13 53
-11 62 2 10 -1 15 -9 12 -16 -7 -48 71 -40 97 4 11 2 19 -4 19 -6 0 -11 -8
-12 -17 0 -10 -9 4 -20 31 -11 26 -17 57 -14 67 4 11 2 19 -4 19 -6 0 -11 -6
-11 -12 -1 -7 -8 0 -17 17 -9 16 -22 36 -30 44 -8 8 -12 22 -10 32 3 10 0 17
-6 16 -6 -1 -12 7 -14 18 -3 17 -2 18 7 5 10 -13 11 -13 7 0 -2 8 -11 15 -21
15 -17 0 -36 21 -36 40 1 6 7 2 14 -7 7 -10 17 -18 21 -18 5 0 -2 11 -15 25
-13 14 -28 25 -34 25 -6 0 -4 -5 4 -11 13 -9 13 -10 0 -6 -8 2 -20 14 -26 26
-6 12 -19 28 -29 35 -10 7 -15 18 -11 25 4 7 2 10 -5 9 -6 -2 -14 3 -17 11 -3
8 0 11 7 7 7 -4 9 -1 5 8 -3 8 -18 22 -32 31 l-27 16 24 -20 c13 -12 20 -21
15 -21 -4 0 -35 26 -70 58 -34 31 -78 71 -98 87 -19 17 -36 35 -35 40 0 6 13
-4 29 -22 16 -17 42 -39 58 -47 16 -8 32 -22 35 -30 3 -8 16 -20 29 -27 20
-10 -36 47 -74 76 -7 6 -40 33 -73 61 -33 28 -71 57 -85 63 -21 10 -22 10 -6
-1 11 -7 27 -20 36 -29 10 -9 26 -22 36 -28 11 -6 14 -11 9 -11 -20 0 -116 78
-104 86 13 7 -61 54 -75 46 -4 -2 9 -13 30 -22 48 -22 40 -26 -9 -5 -25 10
-35 20 -31 30 4 11 -3 19 -25 26 -17 6 -31 16 -31 21 0 7 -4 7 -12 1 -9 -6
-28 -2 -58 13 -52 26 -49 31 5 8 20 -8 39 -13 42 -11 2 3 -12 10 -31 17 -20 6
-36 16 -36 22 0 6 -7 7 -16 4 -19 -7 -93 12 -114 30 -8 7 -37 18 -63 25 -26 6
-46 14 -43 16 7 7 116 -27 116 -36 0 -5 12 -11 28 -14 15 -3 36 -8 47 -12 11
-3 9 0 -5 7 -14 7 -28 17 -32 23 -4 5 -8 7 -8 3 0 -6 -36 7 -125 47 -16 7 -58
19 -92 26 -35 7 -63 16 -63 20 0 4 -30 12 -67 19 -38 6 -75 14 -83 17 -39 15
-181 33 -262 33 -36 0 -58 5 -61 13 -4 9 -8 8 -16 -3 -7 -10 -11 -11 -11 -2 0
9 -517 12 -2550 12 -2033 0 -2550 -3 -2550 -12 0 -9 -4 -8 -10 2 -6 10 -10 11
-10 3z m-87 -30 c-51 -2 -93 -8 -93 -13 0 -6 -16 -10 -36 -10 -20 0 -81 -7
-136 -16 -55 -9 -102 -13 -105 -11 -2 3 36 11 86 18 50 7 91 16 91 20 0 10 76
15 195 15 l90 0 -92 -3z m5487 -12 c3 -4 45 -13 93 -20 48 -7 86 -15 83 -18
-2 -3 -49 2 -104 11 -55 9 -116 16 -136 16 -20 0 -36 4 -36 10 0 5 -33 11 -72
13 -40 2 -19 2 47 0 65 -2 122 -7 125 -12z m-5930 -71 c-41 -11 -82 -19 -90
-19 -24 1 112 37 140 37 14 0 -9 -8 -50 -18z m6215 0 c39 -10 63 -18 55 -18
-8 -1 -49 7 -90 17 -41 11 -66 19 -55 19 11 0 52 -8 90 -18z m-6345 -42 c-64
-17 -87 -19 -50 -4 19 7 46 14 60 14 19 0 17 -2 -10 -10z m6780 -151 c13 -5
13 -6 -1 -6 -8 -1 -24 6 -35 15 -19 15 -19 15 1 6 11 -5 27 -12 35 -15z
m-7710 -567 c0 -5 -4 -10 -10 -10 -5 0 -10 5 -10 10 0 6 5 10 10 10 6 0 10 -4
10 -10z m8607 -1542 c-2 -24 -4 -7 -4 37 0 44 2 63 4 43 2 -21 2 -57 0 -80z
m0 -415 c-3 -10 -5 -2 -5 17 0 19 2 27 5 18 2 -10 2 -26 0 -35z m0 -525 c-1
-90 -3 -19 -3 157 0 176 2 249 3 163 2 -86 2 -230 0 -320z m0 -2570 c-1 -431
-2 -79 -2 782 0 861 1 1213 2 783 2 -431 2 -1135 0 -1565z m0 -905 c-2 -16 -4
-3 -4 27 0 30 2 43 4 28 2 -16 2 -40 0 -55z m-8402 -1531 c4 -10 -6 -5 -24 12
-17 17 -31 31 -31 33 0 10 49 -31 55 -45z m7844 -46 c-24 -24 -46 -43 -48 -40
-5 5 72 83 83 84 4 0 -11 -20 -35 -44z m-7721 -62 c12 -8 22 -21 22 -27 -1 -7
-5 -6 -13 4 -7 8 -21 21 -32 27 -11 6 -15 12 -10 12 6 0 21 -7 33 -16z m108
-89 c18 -13 18 -14 -4 -8 -12 3 -25 9 -28 14 -8 14 10 11 32 -6z m340 -202
c-2 -2 -24 5 -50 15 -26 10 -44 21 -41 24 3 3 26 -4 50 -15 25 -11 43 -22 41
-24z m84 -34 c18 -11 -34 -1 -65 13 -13 5 -9 6 15 2 19 -4 42 -10 50 -15z
m6485 -45 c-27 -7 -57 -13 -65 -13 -21 1 70 27 95 27 11 0 -2 -6 -30 -14z
m-6234 -40 c49 -9 88 -19 85 -21 -5 -5 -186 27 -186 33 0 6 5 5 101 -12z
m6158 11 c-7 -6 -160 -35 -179 -34 -8 1 21 9 65 19 82 18 122 24 114 15z
m-249 -61 c-36 -7 -79 -13 -97 -14 -17 0 -33 -4 -35 -10 -2 -6 -61 -11 -138
-14 -74 -2 -96 -1 -47 1 48 2 87 8 87 13 0 6 19 10 43 11 23 0 78 6 122 13
105 17 148 17 65 0z m-5372 -41 c-27 -2 -69 -2 -95 0 -27 2 -5 3 47 3 52 0 74
-1 48 -3z"/>
<path d="M1634 9374 c-19 -15 -19 -15 1 -6 11 5 27 12 35 15 13 5 13 6 -1 6
-8 1 -24 -6 -35 -15z"/>
<path d="M1409 9233 c-12 -16 -12 -17 1 -7 8 6 22 14 30 17 13 5 12 6 -1 6 -9
1 -23 -7 -30 -16z"/>
<path d="M1139 9001 c-13 -11 -22 -21 -19 -23 3 -2 16 6 29 19 29 28 22 30
-10 4z"/>
<path d="M1073 8925 c-36 -37 -39 -45 -21 -45 6 0 9 3 6 6 -3 3 9 21 28 40 19
19 31 34 27 34 -4 0 -23 -16 -40 -35z"/>
<path d="M9138 8933 c-3 -4 6 -18 19 -30 28 -27 30 -20 4 13 -11 14 -21 21
-23 17z"/>
<path d="M9275 8750 c-3 -5 -1 -10 4 -10 6 0 11 5 11 10 0 6 -2 10 -4 10 -3 0
-8 -4 -11 -10z"/>
<path d="M910 8695 c-11 -13 -10 -14 4 -9 9 3 16 10 16 15 0 13 -6 11 -20 -6z"/>
<path d="M810 8520 c0 -5 5 -10 10 -10 6 0 10 5 10 10 0 6 -4 10 -10 10 -5 0
-10 -4 -10 -10z"/>
<path d="M726 8285 c4 -8 8 -15 10 -15 2 0 4 7 4 15 0 8 -4 15 -10 15 -5 0 -7
-7 -4 -15z"/>
<path d="M9500 8235 c0 -8 2 -15 4 -15 2 0 6 7 10 15 3 8 1 15 -4 15 -6 0 -10
-7 -10 -15z"/>
<path d="M692 8135 c0 -16 2 -22 5 -12 2 9 2 23 0 30 -3 6 -5 -1 -5 -18z"/>
<path d="M9541 8064 c0 -11 3 -14 6 -6 3 7 2 16 -1 19 -3 4 -6 -2 -5 -13z"/>
<path d="M670 8055 c0 -8 5 -15 10 -15 6 0 10 7 10 15 0 8 -4 15 -10 15 -5 0
-10 -7 -10 -15z"/>
<path d="M9550 7994 c0 -14 4 -23 10 -19 6 3 10 15 10 26 0 10 -4 19 -10 19
-5 0 -10 -12 -10 -26z"/>
<path d="M663 7975 c0 -22 2 -30 4 -17 2 12 2 30 0 40 -3 9 -5 -1 -4 -23z"/>
<path d="M9572 7915 c0 -16 2 -22 5 -12 2 9 2 23 0 30 -3 6 -5 -1 -5 -18z"/>
<path d="M9573 2365 c0 -22 2 -30 4 -17 2 12 2 30 0 40 -3 9 -5 -1 -4 -23z"/>
<path d="M662 2285 c0 -16 2 -22 5 -12 2 9 2 23 0 30 -3 6 -5 -1 -5 -18z"/>
<path d="M9550 2265 c0 -45 14 -45 17 0 2 19 -2 35 -7 35 -6 0 -10 -16 -10
-35z"/>
<path d="M675 2217 c-4 -10 -5 -21 -1 -24 10 -10 18 4 13 24 -4 17 -4 17 -12
0z"/>
<path d="M9541 2204 c0 -11 3 -14 6 -6 3 7 2 16 -1 19 -3 4 -6 -2 -5 -13z"/>
<path d="M9451 1874 c0 -11 3 -14 6 -6 3 7 2 16 -1 19 -3 4 -6 -2 -5 -13z"/>
<path d="M9410 1780 c0 -5 5 -10 10 -10 6 0 10 5 10 10 0 6 -4 10 -10 10 -5 0
-10 -4 -10 -10z"/>
<path d="M950 1500 c0 -5 5 -10 10 -10 6 0 10 5 10 10 0 6 -4 10 -10 10 -5 0
-10 -4 -10 -10z"/>
<path d="M979 1463 c6 -12 16 -25 22 -28 20 -13 15 0 -9 25 -22 23 -24 23 -13
3z"/>
<path d="M9174 1384 c-18 -14 -18 -15 4 -4 12 6 22 13 22 15 0 8 -5 6 -26 -11z"/>
<path d="M1090 1319 c0 -5 5 -7 10 -4 6 3 10 8 10 11 0 2 -4 4 -10 4 -5 0 -10
-5 -10 -11z"/>
<path d="M8770 1015 c-14 -8 -20 -14 -14 -15 5 0 19 7 30 15 24 18 16 19 -16
0z"/>
<path d="M1598 918 c5 -5 16 -8 23 -6 8 3 3 7 -10 11 -17 4 -21 3 -13 -5z"/>
</g>
</svg>
